inDegrees=no
num_controls=7
num_derivatives=13
num_iterations=221
num_multipliers=7
num_parameters=0
num_slacks=7
num_states=26
objective=0.461781
objective_accelerations=0.000000
objective_balance=0.003158
objective_effort=0.035337
objective_height=0.315251
objective_ligament=0.108034
solver_duration=2738.971870
status=Solve_Succeeded
success=true
DataType=double
version=3
OpenSimVersion=4.5
endheader
time	/jointset/ground_pelvis/pelvis_tilt/value	/jointset/ground_pelvis/pelvis_tx/value	/jointset/ground_pelvis/pelvis_ty/value	/jointset/hip_l/hip_flexion_l/value	/jointset/hip_l/hip_adduction_l/value	/jointset/hip_l/hip_rotation_l/value	/jointset/back/lumbar_extension/value	/jointset/patellofemoral_l/patellar_flexion_l/value	/jointset/knee_l/knee_flexion_l/value	/jointset/knee_l/knee_adduction_l/value	/jointset/knee_l/knee_rotation_l/value	/jointset/ankle_l/ankle_angle_l/value	/jointset/subtalar_l/subtalar_angle_l/value	/jointset/ground_pelvis/pelvis_tilt/speed	/jointset/ground_pelvis/pelvis_tx/speed	/jointset/ground_pelvis/pelvis_ty/speed	/jointset/hip_l/hip_flexion_l/speed	/jointset/hip_l/hip_adduction_l/speed	/jointset/hip_l/hip_rotation_l/speed	/jointset/back/lumbar_extension/speed	/jointset/patellofemoral_l/patellar_flexion_l/speed	/jointset/knee_l/knee_flexion_l/speed	/jointset/knee_l/knee_adduction_l/speed	/jointset/knee_l/knee_rotation_l/speed	/jointset/ankle_l/ankle_angle_l/speed	/jointset/subtalar_l/subtalar_angle_l/speed	/forceset/tau_hip_flexion_l	/forceset/tau_hip_adduction_l	/forceset/tau_hip_rotation_l	/forceset/tau_knee_flexion_l	/forceset/tau_ankle_angle_l	/forceset/tau_subtalar_angle_l	/forceset/tau_lumbar_extension	lambda_cid13_p0	lambda_cid13_p1	lambda_cid13_p2	lambda_cid13_p3	lambda_cid13_p4	lambda_cid13_p5	lambda_cid14_p0	/jointset/ground_pelvis/pelvis_tilt/accel	/jointset/ground_pelvis/pelvis_tx/accel	/jointset/ground_pelvis/pelvis_ty/accel	/jointset/hip_l/hip_flexion_l/accel	/jointset/hip_l/hip_adduction_l/accel	/jointset/hip_l/hip_rotation_l/accel	/jointset/back/lumbar_extension/accel	/jointset/patellofemoral_l/patellar_flexion_l/accel	/jointset/knee_l/knee_flexion_l/accel	/jointset/knee_l/knee_adduction_l/accel	/jointset/knee_l/knee_rotation_l/accel	/jointset/ankle_l/ankle_angle_l/accel	/jointset/subtalar_l/subtalar_angle_l/accel	gamma_cid13_p0	gamma_cid13_p1	gamma_cid13_p2	gamma_cid13_p3	gamma_cid13_p4	gamma_cid13_p5	gamma_cid14_p0
0	-0.03682111736877158	0.056676626733441	0.9203419266335079	0.3085816938045678	-0.2956366320056398	-0.3016031157836878	-0.3879492264334186	0.2499269421185225	0.2499269421184919	-0.1745257095279797	-0.1745270304991298	-0.0008036623358878681	0.0004415248966525301	0	0	0	0	0	0	0	0	0	0	0	0	0	0.4736951273037271	0.002840389366982901	-0.0260105360203014	-0.2177463017392261	0.1968650104001577	-0.02682682436024472	-0.7634303526111209	59.74298322409143	-2.050140865595356	3.573934051593325	-40.73706316356864	-3.571328590492374	-83.90381923800832	-23.23226446005765	175.8754407804243	-12.85215864180742	15.95694820266666	-79.13251647304857	96.39020447490265	-9.932052632783979	-263.3098136111296	126.3589191229381	126.3589191229695	242.8848654852716	-2.816627192903228	97.45447654664291	133.554039422354	0.0002692168582128072	0.002544052220028611	-0.002320398227554765	0.0001352825147842062	0.001406926048504524	0.003647913199331787	0.0002936802638946343
0.01	-0.02906406098391761	0.05607133718538225	0.9210346534581866	0.3050986113012465	-0.2913366402232241	-0.3018918005022042	-0.3996971813573356	0.2553726567021961	0.2553726567021606	-0.1637541843554875	-0.1743928994476634	0.003410703697321125	0.006369968238579292	1.448786654549566	-0.1173162160957681	0.1251304622491967	-0.6546054169863493	0.8046475831173575	-0.06155887112599233	-2.207928151402893	0.9984733978906728	0.9984733978907839	2.01414063760222	0.04007418682796871	0.7737678577820458	1.110046381317331	0.4061707209845385	-0.04132368261830771	-0.02520339469416671	-0.2500126193021315	0.1720119567371485	-0.02766664619421277	-0.5811975084385527	42.56954799151132	1.855939126076182	2.343711788469486	13.10799568934406	-117.6469904291135	-78.73783342152039	-23.23326929966622	113.9603978980334	-10.58304256415918	9.060245042771131	-52.32837259372529	64.38822822580839	-4.406136356958625	-178.2848908970505	72.93238624372795	72.93238624372464	159.7232750701261	8.965519737522579	56.98458461422891	88.2572078498231	0.0002294405085941132	0.001102526403155922	-0.0009221563217467834	2.661503830558379e-05	0.0006142917567644152	0.001515749629922229	0.0001753761789560804
0.02	-0.009903114032447136	0.05441054758222506	0.9226325148667021	0.296328710971603	-0.2806129340105004	-0.3028237403328585	-0.4292745327937363	0.2680712724890605	0.268071272489075	-0.1370323303724719	-0.1735488109044824	0.01329207715240119	0.02110432946635955	2.280778113331651	-0.2111000110196901	0.1810269167673446	-1.057363565264579	1.284742886060972	-0.1286510224300746	-3.56587930249299	1.450580240645193	1.450580240645245	3.190065762101608	0.141991498330955	1.13340148437383	1.761183577170685	0.338646314665306	-0.08548775460362538	-0.02439625336774877	-0.2822789368651242	0.1471589030741106	-0.028506468028223	-0.3989646642659777	26.18516092042156	5.932987157241654	0.7272807630928498	66.97181291475511	-218.0643135708239	-70.9010805525552	-23.23765400661149	52.51640162692888	-8.145674407438573	2.110146656456911	-28.7630627314246	31.4797484401542	-11.03870866840222	-93.31441354857027	17.08560809570783	17.08560809570509	75.24176286470546	9.551997742100042	14.62763030859021	41.77220232955863	0.0001896641589754192	-0.000338999413716767	0.0004760855840611985	-8.205243817303859e-05	-0.0001783425349756933	-0.0006164139394873288	5.707209401752643e-05
0.03	0.01495292297934112	0.05192750659849674	0.9244738887075525	0.2843794302009769	-0.2667347992236914	-0.3043457268627885	-0.4687576040638851	0.2827508236627646	0.2827508236627536	-0.1027464368420522	-0.1713646386431586	0.02484100816122736	0.04007651094265288	2.63626941101651	-0.2826262666853551	0.1818431160820973	-1.31042698042277	1.432196563551629	-0.1400386899491068	-4.25520517456657	1.457923053870313	1.457923053870338	3.527392683868968	0.300831128921803	1.140880037024067	1.956011336115116	0.2853998960963123	-0.1034546090447414	-0.01313256988723611	-0.2922706832169054	0.1351125226407481	-0.06192863049330159	-0.2804315467931723	15.82085829694486	22.96657779717652	-2.791273653056594	99.43724478975366	-277.0224653298203	-30.57176868440515	-23.21519008944001	18.97793573844147	-6.240662839068438	-1.78222479891745	-20.23300522793036	-2.492656261039911	9.071080046442685	-45.41220749074377	-11.56335951990522	-11.56335951990745	-7.979078945170814	20.04473058572959	-11.47342474461986	-3.255756962281165	2.216578315133162e-05	-0.0002004992523322406	0.0002405161013931692	-2.534093005277979e-05	-8.004736344338147e-05	-0.0002899527519783677	-9.174512138664001e-06
0.04	0.04174636134779041	0.04881229071952304	0.9261535082679689	0.2705685104147804	-0.2531562943948851	-0.3049296148998825	-0.512868040745582	0.296679407477539	0.2966794074775377	-0.06927872124956028	-0.167393113102309	0.03540844619898528	0.05867820608055731	2.668258384668545	-0.3375349900687674	0.1486760606805495	-1.429691368377525	1.224816894459847	0.05896867613570238	-4.49135238479977	1.300386768862661	1.300386768862675	3.026430174519454	0.4994621542387404	0.9371028901598873	1.687086309492889	0.2321534775273039	-0.1214214634858763	-0.00186888640656773	-0.302262429568698	0.1230661422073815	-0.0953507929584038	-0.1618984293203746	2.063558831605853	40.48427086682315	-6.262939735943344	126.631693898462	-388.7791441274107	7.170970970758183	-23.15407732588491	-12.18406317963473	-4.822167950988387	-4.686504286803212	-2.003257290737254	-39.48692087633324	31.04029805236589	-2.678681180493585	-15.89021155084648	-15.89021155084606	-92.41612335866897	17.51027668731773	-27.62350959429353	-50.97835478377303	-0.0001479660365120425	-2.942123572591612e-05	-2.874021402694328e-05	3.478045403859e-05	3.661748774403179e-05	8.720172948767661e-05	-7.43477682168676e-05
0.05	0.06782179440420515	0.04520463341623589	0.927424060878566	0.256226526734579	-0.2429043028029485	-0.3029668081595066	-0.5578956165013417	0.30906328370623	0.3090632837062091	-0.04363437680861177	-0.1618384781355048	0.04347971009011644	0.07296892773853467	2.547500164315916	-0.3830636488885851	0.1068568352409785	-1.435365312428018	0.8265827836773957	0.3235419725274057	-4.512113295064903	1.185382442180074	1.185382442180009	2.107537339419811	0.5938296142775892	0.6837093852039571	1.172051951059687	0.2019357230778335	-0.1080737579508118	-6.768492385208905e-05	-0.2982607188678642	0.1310419238758316	-0.08426205097559994	-0.1212338624535879	1.570179936305529	36.48145584949052	-6.454461448684613	111.6333482484626	-451.0278392281693	0.4137332670739054	-23.06375529705977	-11.94409853582391	-4.270849673145148	-3.708009358428903	0.6281486292611813	-39.81412061397164	22.66444096938095	-1.46737525617408	-7.941052224600242	-7.941052224612482	-90.87092449902076	2.746356604064295	-23.24567395683328	-51.60480591209321	-0.0001079123785564808	1.760196227055976e-05	-4.204980449419732e-05	1.845974245596349e-05	6.410724151702279e-05	0.0001449411604844928	-5.905309065422167e-05
